# xmcd CD database file
#
# Track frame offsets:
#	187
#	17675
#	36062
#	57395
#	78640
#	100500
#	125750
#	148560
#	172057
#	193450
#
# Disc length: 2848 seconds
#
# Revision: 0
# Processed by: cddbd v1.5PL3 Copyright (c) Steve Scherf et al.
# Submitted via: CDex 1.40Release
#
DISCID=8d0b1e0a
DTITLE=EUROX - Megatrend
DYEAR=1987
DGENRE=Rock
TTITLE0=MEGATREND
TTITLE1=CHEERIO
TTITLE2=LONGING FOR TRAVEL
TTITLE3=WHERE YOU ARE
TTITLE4=WHAT IS YOUR WISH?
TTITLE5=DREAM OF
TTITLE6=SHINING TIME
TTITLE7=ATTITUDE
TTITLE8=PLEASE WAIT FOR ME!
TTITLE9=ADULATION
EXTD=YEAR: 1987 ID3G: 17
EXTT0=
EXTT1=
EXTT2=
EXTT3=
EXTT4=
EXTT5=
EXTT6=
EXTT7=
EXTT8=
EXTT9=
PLAYORDER=
